<svg aria-roledescription="er" role="graphics-document document" viewBox="0 0 459.6875 364" style="max-width: 459.6875px;" xmlns="http://www.w3.org/2000/svg" width="100%" id="mermaidSvgChart"><style>#mermaidSvgChart{font-family:"trebuchet ms",verdana,arial,sans-serif;font-size:16px;fill:#000000;}#mermaidSvgChart .error-icon{fill:#552222;}#mermaidSvgChart .error-text{fill:#552222;stroke:#552222;}#mermaidSvgChart .edge-thickness-normal{stroke-width:2px;}#mermaidSvgChart .edge-thickness-thick{stroke-width:3.5px;}#mermaidSvgChart .edge-pattern-solid{stroke-dasharray:0;}#mermaidSvgChart .edge-pattern-dashed{stroke-dasharray:3;}#mermaidSvgChart .edge-pattern-dotted{stroke-dasharray:2;}#mermaidSvgChart .marker{fill:#666;stroke:#666;}#mermaidSvgChart .marker.cross{stroke:#666;}#mermaidSvgChart svg{font-family:"trebuchet ms",verdana,arial,sans-serif;font-size:16px;}#mermaidSvgChart .entityBox{fill:#eee;stroke:#999;}#mermaidSvgChart .attributeBoxOdd{fill:#ffffff;stroke:#999;}#mermaidSvgChart .attributeBoxEven{fill:#f2f2f2;stroke:#999;}#mermaidSvgChart .relationshipLabelBox{fill:hsl(-160, 0%, 93.3333333333%);opacity:0.7;background-color:hsl(-160, 0%, 93.3333333333%);}#mermaidSvgChart .relationshipLabelBox rect{opacity:0.5;}#mermaidSvgChart .relationshipLine{stroke:#666;}#mermaidSvgChart .entityTitleText{text-anchor:middle;font-size:18px;fill:#000000;}#mermaidSvgChart :root{--mermaid-font-family:"trebuchet ms",verdana,arial,sans-serif;}</style><g></g><defs><marker orient="auto" markerHeight="18" markerWidth="18" refY="9" refX="0" id="ONLY_ONE_START"><path d="M9,0 L9,18 M15,0 L15,18" fill="none" stroke="gray"></path></marker></defs><defs><marker orient="auto" markerHeight="18" markerWidth="18" refY="9" refX="18" id="ONLY_ONE_END"><path d="M3,0 L3,18 M9,0 L9,18" fill="none" stroke="gray"></path></marker></defs><defs><marker orient="auto" markerHeight="18" markerWidth="30" refY="9" refX="0" id="ZERO_OR_ONE_START"><circle r="6" cy="9" cx="21" fill="white" stroke="gray"></circle><path d="M9,0 L9,18" fill="none" stroke="gray"></path></marker></defs><defs><marker orient="auto" markerHeight="18" markerWidth="30" refY="9" refX="30" id="ZERO_OR_ONE_END"><circle r="6" cy="9" cx="9" fill="white" stroke="gray"></circle><path d="M21,0 L21,18" fill="none" stroke="gray"></path></marker></defs><defs><marker orient="auto" markerHeight="36" markerWidth="45" refY="18" refX="18" id="ONE_OR_MORE_START"><path d="M0,18 Q 18,0 36,18 Q 18,36 0,18 M42,9 L42,27" fill="none" stroke="gray"></path></marker></defs><defs><marker orient="auto" markerHeight="36" markerWidth="45" refY="18" refX="27" id="ONE_OR_MORE_END"><path d="M3,9 L3,27 M9,18 Q27,0 45,18 Q27,36 9,18" fill="none" stroke="gray"></path></marker></defs><defs><marker orient="auto" markerHeight="36" markerWidth="57" refY="18" refX="18" id="ZERO_OR_MORE_START"><circle r="6" cy="18" cx="48" fill="white" stroke="gray"></circle><path d="M0,18 Q18,0 36,18 Q18,36 0,18" fill="none" stroke="gray"></path></marker></defs><defs><marker orient="auto" markerHeight="36" markerWidth="57" refY="18" refX="39" id="ZERO_OR_MORE_END"><circle r="6" cy="18" cx="9" fill="white" stroke="gray"></circle><path d="M21,18 Q39,0 57,18 Q39,36 21,18" fill="none" stroke="gray"></path></marker></defs><path style="stroke: gray; fill: none;" marker-start="url(#ONLY_ONE_START)" marker-end="url(#ONE_OR_MORE_END)" d="M183.776,88L170.887,96.333C157.998,104.667,132.22,121.333,119.33,138C106.441,154.667,106.441,171.333,106.441,179.667L106.441,188" class="er relationshipLine"></path><path style="stroke: gray; fill: none;" marker-start="url(#ONLY_ONE_START)" marker-end="url(#ONE_OR_MORE_END)" d="M288.951,88L301.84,96.333C314.729,104.667,340.507,121.333,353.396,138C366.285,154.667,366.285,171.333,366.285,179.667L366.285,188" class="er relationshipLine"></path><g transform="translate(20,188 )" id="entity-dbousers-84fcaf37-9a7f-51a9-a83e-8b2a014be92f"><rect height="156" width="172.8828125" y="0" x="0" class="er entityBox"></rect><text style="dominant-baseline: middle; text-anchor: middle; font-size: 12px;" transform="translate(86.44140625,12)" y="0" x="0" id="text-entity-dbousers-84fcaf37-9a7f-51a9-a83e-8b2a014be92f" class="er entityLabel">dbo.users</text><rect height="22" width="67.828125" y="24" x="0" class="er attributeBoxOdd"></rect><text style="dominant-baseline: middle; font-size: 10.2px;" transform="translate(5,35)" y="0" x="0" id="text-entity-dbousers-84fcaf37-9a7f-51a9-a83e-8b2a014be92f-attr-1-type" class="er entityLabel">int</text><rect height="22" width="81.4453125" y="24" x="67.828125" class="er attributeBoxOdd"></rect><text style="dominant-baseline: middle; font-size: 10.2px;" transform="translate(72.828125,35)" y="0" x="0" id="text-entity-dbousers-84fcaf37-9a7f-51a9-a83e-8b2a014be92f-attr-1-name" class="er entityLabel">user_id</text><rect height="22" width="23.609375" y="24" x="149.2734375" class="er attributeBoxOdd"></rect><text style="dominant-baseline: middle; font-size: 10.2px;" transform="translate(154.2734375,35)" y="0" x="0" id="text-entity-dbousers-84fcaf37-9a7f-51a9-a83e-8b2a014be92f-attr-1-comment" class="er entityLabel">PK</text><rect height="22" width="67.828125" y="46" x="0" class="er attributeBoxEven"></rect><text style="dominant-baseline: middle; font-size: 10.2px;" transform="translate(5,57)" y="0" x="0" id="text-entity-dbousers-84fcaf37-9a7f-51a9-a83e-8b2a014be92f-attr-2-type" class="er entityLabel">varchar(50)</text><rect height="22" width="81.4453125" y="46" x="67.828125" class="er attributeBoxEven"></rect><text style="dominant-baseline: middle; font-size: 10.2px;" transform="translate(72.828125,57)" y="0" x="0" id="text-entity-dbousers-84fcaf37-9a7f-51a9-a83e-8b2a014be92f-attr-2-name" class="er entityLabel">username</text><rect height="22" width="23.609375" y="46" x="149.2734375" class="er attributeBoxEven"></rect><text style="dominant-baseline: middle; font-size: 10.2px;" transform="translate(154.2734375,57)" y="0" x="0" id="text-entity-dbousers-84fcaf37-9a7f-51a9-a83e-8b2a014be92f-attr-2-comment" class="er entityLabel"></text><rect height="22" width="67.828125" y="68" x="0" class="er attributeBoxOdd"></rect><text style="dominant-baseline: middle; font-size: 10.2px;" transform="translate(5,79)" y="0" x="0" id="text-entity-dbousers-84fcaf37-9a7f-51a9-a83e-8b2a014be92f-attr-3-type" class="er entityLabel">varchar(75)</text><rect height="22" width="81.4453125" y="68" x="67.828125" class="er attributeBoxOdd"></rect><text style="dominant-baseline: middle; font-size: 10.2px;" transform="translate(72.828125,79)" y="0" x="0" id="text-entity-dbousers-84fcaf37-9a7f-51a9-a83e-8b2a014be92f-attr-3-name" class="er entityLabel">email</text><rect height="22" width="23.609375" y="68" x="149.2734375" class="er attributeBoxOdd"></rect><text style="dominant-baseline: middle; font-size: 10.2px;" transform="translate(154.2734375,79)" y="0" x="0" id="text-entity-dbousers-84fcaf37-9a7f-51a9-a83e-8b2a014be92f-attr-3-comment" class="er entityLabel"></text><rect height="22" width="67.828125" y="90" x="0" class="er attributeBoxEven"></rect><text style="dominant-baseline: middle; font-size: 10.2px;" transform="translate(5,101)" y="0" x="0" id="text-entity-dbousers-84fcaf37-9a7f-51a9-a83e-8b2a014be92f-attr-4-type" class="er entityLabel">varchar(200)</text><rect height="22" width="81.4453125" y="90" x="67.828125" class="er attributeBoxEven"></rect><text style="dominant-baseline: middle; font-size: 10.2px;" transform="translate(72.828125,101)" y="0" x="0" id="text-entity-dbousers-84fcaf37-9a7f-51a9-a83e-8b2a014be92f-attr-4-name" class="er entityLabel">password_hash</text><rect height="22" width="23.609375" y="90" x="149.2734375" class="er attributeBoxEven"></rect><text style="dominant-baseline: middle; font-size: 10.2px;" transform="translate(154.2734375,101)" y="0" x="0" id="text-entity-dbousers-84fcaf37-9a7f-51a9-a83e-8b2a014be92f-attr-4-comment" class="er entityLabel"></text><rect height="22" width="67.828125" y="112" x="0" class="er attributeBoxOdd"></rect><text style="dominant-baseline: middle; font-size: 10.2px;" transform="translate(5,123)" y="0" x="0" id="text-entity-dbousers-84fcaf37-9a7f-51a9-a83e-8b2a014be92f-attr-5-type" class="er entityLabel">varchar(200)</text><rect height="22" width="81.4453125" y="112" x="67.828125" class="er attributeBoxOdd"></rect><text style="dominant-baseline: middle; font-size: 10.2px;" transform="translate(72.828125,123)" y="0" x="0" id="text-entity-dbousers-84fcaf37-9a7f-51a9-a83e-8b2a014be92f-attr-5-name" class="er entityLabel">salt</text><rect height="22" width="23.609375" y="112" x="149.2734375" class="er attributeBoxOdd"></rect><text style="dominant-baseline: middle; font-size: 10.2px;" transform="translate(154.2734375,123)" y="0" x="0" id="text-entity-dbousers-84fcaf37-9a7f-51a9-a83e-8b2a014be92f-attr-5-comment" class="er entityLabel"></text><rect height="22" width="67.828125" y="134" x="0" class="er attributeBoxEven"></rect><text style="dominant-baseline: middle; font-size: 10.2px;" transform="translate(5,145)" y="0" x="0" id="text-entity-dbousers-84fcaf37-9a7f-51a9-a83e-8b2a014be92f-attr-6-type" class="er entityLabel">varchar(50)</text><rect height="22" width="81.4453125" y="134" x="67.828125" class="er attributeBoxEven"></rect><text style="dominant-baseline: middle; font-size: 10.2px;" transform="translate(72.828125,145)" y="0" x="0" id="text-entity-dbousers-84fcaf37-9a7f-51a9-a83e-8b2a014be92f-attr-6-name" class="er entityLabel">user_role</text><rect height="22" width="23.609375" y="134" x="149.2734375" class="er attributeBoxEven"></rect><text style="dominant-baseline: middle; font-size: 10.2px;" transform="translate(154.2734375,145)" y="0" x="0" id="text-entity-dbousers-84fcaf37-9a7f-51a9-a83e-8b2a014be92f-attr-6-comment" class="er entityLabel"></text></g><g transform="translate(292.8828125,188 )" id="entity-dbopets-3ac9c031-255a-5a3a-b15b-4873bca118e2"><rect height="156" width="146.8046875" y="0" x="0" class="er entityBox"></rect><text style="dominant-baseline: middle; text-anchor: middle; font-size: 12px;" transform="translate(73.40234375,12)" y="0" x="0" id="text-entity-dbopets-3ac9c031-255a-5a3a-b15b-4873bca118e2" class="er entityLabel">dbo.pets</text><rect height="22" width="67.828125" y="24" x="0" class="er attributeBoxOdd"></rect><text style="dominant-baseline: middle; font-size: 10.2px;" transform="translate(5,35)" y="0" x="0" id="text-entity-dbopets-3ac9c031-255a-5a3a-b15b-4873bca118e2-attr-1-type" class="er entityLabel">int</text><rect height="22" width="55.3671875" y="24" x="67.828125" class="er attributeBoxOdd"></rect><text style="dominant-baseline: middle; font-size: 10.2px;" transform="translate(72.828125,35)" y="0" x="0" id="text-entity-dbopets-3ac9c031-255a-5a3a-b15b-4873bca118e2-attr-1-name" class="er entityLabel">pet_id</text><rect height="22" width="23.609375" y="24" x="123.1953125" class="er attributeBoxOdd"></rect><text style="dominant-baseline: middle; font-size: 10.2px;" transform="translate(128.1953125,35)" y="0" x="0" id="text-entity-dbopets-3ac9c031-255a-5a3a-b15b-4873bca118e2-attr-1-comment" class="er entityLabel">PK</text><rect height="22" width="67.828125" y="46" x="0" class="er attributeBoxEven"></rect><text style="dominant-baseline: middle; font-size: 10.2px;" transform="translate(5,57)" y="0" x="0" id="text-entity-dbopets-3ac9c031-255a-5a3a-b15b-4873bca118e2-attr-2-type" class="er entityLabel">nvarchar(50)</text><rect height="22" width="55.3671875" y="46" x="67.828125" class="er attributeBoxEven"></rect><text style="dominant-baseline: middle; font-size: 10.2px;" transform="translate(72.828125,57)" y="0" x="0" id="text-entity-dbopets-3ac9c031-255a-5a3a-b15b-4873bca118e2-attr-2-name" class="er entityLabel">pet_name</text><rect height="22" width="23.609375" y="46" x="123.1953125" class="er attributeBoxEven"></rect><text style="dominant-baseline: middle; font-size: 10.2px;" transform="translate(128.1953125,57)" y="0" x="0" id="text-entity-dbopets-3ac9c031-255a-5a3a-b15b-4873bca118e2-attr-2-comment" class="er entityLabel"></text><rect height="22" width="67.828125" y="68" x="0" class="er attributeBoxOdd"></rect><text style="dominant-baseline: middle; font-size: 10.2px;" transform="translate(5,79)" y="0" x="0" id="text-entity-dbopets-3ac9c031-255a-5a3a-b15b-4873bca118e2-attr-3-type" class="er entityLabel">nvarchar(50)</text><rect height="22" width="55.3671875" y="68" x="67.828125" class="er attributeBoxOdd"></rect><text style="dominant-baseline: middle; font-size: 10.2px;" transform="translate(72.828125,79)" y="0" x="0" id="text-entity-dbopets-3ac9c031-255a-5a3a-b15b-4873bca118e2-attr-3-name" class="er entityLabel">pet_type</text><rect height="22" width="23.609375" y="68" x="123.1953125" class="er attributeBoxOdd"></rect><text style="dominant-baseline: middle; font-size: 10.2px;" transform="translate(128.1953125,79)" y="0" x="0" id="text-entity-dbopets-3ac9c031-255a-5a3a-b15b-4873bca118e2-attr-3-comment" class="er entityLabel"></text><rect height="22" width="67.828125" y="90" x="0" class="er attributeBoxEven"></rect><text style="dominant-baseline: middle; font-size: 10.2px;" transform="translate(5,101)" y="0" x="0" id="text-entity-dbopets-3ac9c031-255a-5a3a-b15b-4873bca118e2-attr-4-type" class="er entityLabel">nvarchar(50)</text><rect height="22" width="55.3671875" y="90" x="67.828125" class="er attributeBoxEven"></rect><text style="dominant-baseline: middle; font-size: 10.2px;" transform="translate(72.828125,101)" y="0" x="0" id="text-entity-dbopets-3ac9c031-255a-5a3a-b15b-4873bca118e2-attr-4-name" class="er entityLabel">brand</text><rect height="22" width="23.609375" y="90" x="123.1953125" class="er attributeBoxEven"></rect><text style="dominant-baseline: middle; font-size: 10.2px;" transform="translate(128.1953125,101)" y="0" x="0" id="text-entity-dbopets-3ac9c031-255a-5a3a-b15b-4873bca118e2-attr-4-comment" class="er entityLabel"></text><rect height="22" width="67.828125" y="112" x="0" class="er attributeBoxOdd"></rect><text style="dominant-baseline: middle; font-size: 10.2px;" transform="translate(5,123)" y="0" x="0" id="text-entity-dbopets-3ac9c031-255a-5a3a-b15b-4873bca118e2-attr-5-type" class="er entityLabel">varchar(10)</text><rect height="22" width="55.3671875" y="112" x="67.828125" class="er attributeBoxOdd"></rect><text style="dominant-baseline: middle; font-size: 10.2px;" transform="translate(72.828125,123)" y="0" x="0" id="text-entity-dbopets-3ac9c031-255a-5a3a-b15b-4873bca118e2-attr-5-name" class="er entityLabel">date_birth</text><rect height="22" width="23.609375" y="112" x="123.1953125" class="er attributeBoxOdd"></rect><text style="dominant-baseline: middle; font-size: 10.2px;" transform="translate(128.1953125,123)" y="0" x="0" id="text-entity-dbopets-3ac9c031-255a-5a3a-b15b-4873bca118e2-attr-5-comment" class="er entityLabel"></text><rect height="22" width="67.828125" y="134" x="0" class="er attributeBoxEven"></rect><text style="dominant-baseline: middle; font-size: 10.2px;" transform="translate(5,145)" y="0" x="0" id="text-entity-dbopets-3ac9c031-255a-5a3a-b15b-4873bca118e2-attr-6-type" class="er entityLabel">varchar(12)</text><rect height="22" width="55.3671875" y="134" x="67.828125" class="er attributeBoxEven"></rect><text style="dominant-baseline: middle; font-size: 10.2px;" transform="translate(72.828125,145)" y="0" x="0" id="text-entity-dbopets-3ac9c031-255a-5a3a-b15b-4873bca118e2-attr-6-name" class="er entityLabel">time_birth</text><rect height="22" width="23.609375" y="134" x="123.1953125" class="er attributeBoxEven"></rect><text style="dominant-baseline: middle; font-size: 10.2px;" transform="translate(128.1953125,145)" y="0" x="0" id="text-entity-dbopets-3ac9c031-255a-5a3a-b15b-4873bca118e2-attr-6-comment" class="er entityLabel"></text></g><g transform="translate(180.3359375,20 )" id="entity-dbouserspets-b9cb0f40-e8f9-5c02-a965-c6de607aa086"><rect height="68" width="112.0546875" y="0" x="0" class="er entityBox"></rect><text style="dominant-baseline: middle; text-anchor: middle; font-size: 12px;" transform="translate(56.02734375,12)" y="0" x="0" id="text-entity-dbouserspets-b9cb0f40-e8f9-5c02-a965-c6de607aa086" class="er entityLabel">dbo.users_pets</text><rect height="22" width="22.609375" y="24" x="0" class="er attributeBoxOdd"></rect><text style="dominant-baseline: middle; font-size: 10.2px;" transform="translate(5,35)" y="0" x="0" id="text-entity-dbouserspets-b9cb0f40-e8f9-5c02-a965-c6de607aa086-attr-1-type" class="er entityLabel">int</text><rect height="22" width="45.296875" y="24" x="22.609375" class="er attributeBoxOdd"></rect><text style="dominant-baseline: middle; font-size: 10.2px;" transform="translate(27.609375,35)" y="0" x="0" id="text-entity-dbouserspets-b9cb0f40-e8f9-5c02-a965-c6de607aa086-attr-1-name" class="er entityLabel">user_id</text><rect height="22" width="44.1484375" y="24" x="67.90625" class="er attributeBoxOdd"></rect><text style="dominant-baseline: middle; font-size: 10.2px;" transform="translate(72.90625,35)" y="0" x="0" id="text-entity-dbouserspets-b9cb0f40-e8f9-5c02-a965-c6de607aa086-attr-1-comment" class="er entityLabel">PK, FK</text><rect height="22" width="22.609375" y="46" x="0" class="er attributeBoxEven"></rect><text style="dominant-baseline: middle; font-size: 10.2px;" transform="translate(5,57)" y="0" x="0" id="text-entity-dbouserspets-b9cb0f40-e8f9-5c02-a965-c6de607aa086-attr-2-type" class="er entityLabel">int</text><rect height="22" width="45.296875" y="46" x="22.609375" class="er attributeBoxEven"></rect><text style="dominant-baseline: middle; font-size: 10.2px;" transform="translate(27.609375,57)" y="0" x="0" id="text-entity-dbouserspets-b9cb0f40-e8f9-5c02-a965-c6de607aa086-attr-2-name" class="er entityLabel">pet_id</text><rect height="22" width="44.1484375" y="46" x="67.90625" class="er attributeBoxEven"></rect><text style="dominant-baseline: middle; font-size: 10.2px;" transform="translate(72.90625,57)" y="0" x="0" id="text-entity-dbouserspets-b9cb0f40-e8f9-5c02-a965-c6de607aa086-attr-2-comment" class="er entityLabel">PK, FK</text></g><rect height="14" width="39.359375" y="120.33108520507812" x="109.49758911132812" class="er relationshipLabelBox"></rect><text style="text-anchor: middle; dominant-baseline: middle; font-size: 12px;" y="127.33108520507812" x="129.17727661132812" id="rel1" class="er relationshipLabel">user_id</text><rect height="14" width="32.6953125" y="120.33110046386719" x="327.20159912109375" class="er relationshipLabelBox"></rect><text style="text-anchor: middle; dominant-baseline: middle; font-size: 12px;" y="127.33110046386719" x="343.54925537109375" id="rel2" class="er relationshipLabel">pet_id</text></svg>